<svg xmlns="http://www.w3.org/2000/svg" width="132.388" height="17.03" viewBox="0 0 132.388 17.03">
  <g id="Group_180" data-name="Group 180" transform="translate(-37.321 -266.101)">
    <g id="Group_173" data-name="Group 173" transform="translate(37.321 266.329)">
      <path id="Path_2096" data-name="Path 2096" d="M48.079,280.168H42.091l-1.138,3.415H37.321l6.17-16.575h3.165l6.2,16.575H49.228ZM43.013,277.4h4.144l-2.083-6.2Z" transform="translate(-37.321 -267.009)" fill="#181717"/>
      <path id="Path_2097" data-name="Path 2097" d="M123.753,267.009v10.917a5.589,5.589,0,0,1-1.7,4.3,6.561,6.561,0,0,1-4.65,1.582,6.635,6.635,0,0,1-4.61-1.537,5.494,5.494,0,0,1-1.742-4.223V267.009h3.415v10.94a3.158,3.158,0,0,0,.78,2.374,2.993,2.993,0,0,0,2.157.746q2.88,0,2.926-3.028V267.009Z" transform="translate(-92.567 -267.009)" fill="#181717"/>
      <path id="Path_2098" data-name="Path 2098" d="M189.287,269.775H184.21v13.808h-3.415V269.775h-5.009v-2.766h13.5Z" transform="translate(-141.075 -267.009)" fill="#181717"/>
    </g>
    <g id="Group_175" data-name="Group 175" transform="translate(105.543 266.101)">
      <g id="Group_174" data-name="Group 174" transform="translate(0 0)">
        <path id="Path_2099" data-name="Path 2099" d="M318.754,278.555a1.753,1.753,0,0,0-.683-1.486,8.958,8.958,0,0,0-2.459-1.093,17.436,17.436,0,0,1-2.812-1.133q-2.823-1.526-2.823-4.109a4,4,0,0,1,.757-2.4,4.941,4.941,0,0,1,2.174-1.645,8.188,8.188,0,0,1,3.182-.592,7.451,7.451,0,0,1,3.164.643,5.038,5.038,0,0,1,2.157,1.816,4.75,4.75,0,0,1,.768,2.664h-3.415a2.237,2.237,0,0,0-.717-1.77,2.949,2.949,0,0,0-2.015-.632,3.149,3.149,0,0,0-1.947.529,1.669,1.669,0,0,0-.694,1.394,1.6,1.6,0,0,0,.814,1.355,9.194,9.194,0,0,0,2.4,1.025,10.354,10.354,0,0,1,4.246,2.174,4.33,4.33,0,0,1,1.332,3.233,3.989,3.989,0,0,1-1.628,3.375,7.126,7.126,0,0,1-4.383,1.224,8.462,8.462,0,0,1-3.483-.7,5.512,5.512,0,0,1-2.4-1.918,4.912,4.912,0,0,1-.825-2.823h3.426q0,2.744,3.278,2.743a3.188,3.188,0,0,0,1.9-.5A1.611,1.611,0,0,0,318.754,278.555Z" transform="translate(-309.465 -266.101)" fill="#181717"/>
        <path id="Path_2100" data-name="Path 2100" d="M389.871,283.584h-3.415v-7.1H379.8v7.1h-3.415V267.009H379.8v6.716h6.659v-6.716h3.415Z" transform="translate(-359.606 -266.781)" fill="#181717"/>
      </g>
    </g>
    <g id="Group_176" data-name="Group 176" transform="translate(86.821 266.343)">
      <circle id="Ellipse_4" data-name="Ellipse 4" cx="8.28" cy="8.28" r="8.28" transform="translate(0 0)" fill="#fff700"/>
      <path id="Path_2101" data-name="Path 2101" d="M243.06,270.325a5.021,5.021,0,1,1-5.021,5.021,5.027,5.027,0,0,1,5.021-5.021m0-3.259a8.28,8.28,0,1,0,8.28,8.28,8.28,8.28,0,0,0-8.28-8.28Z" transform="translate(-234.78 -267.066)" fill="#181717"/>
    </g>
    <g id="Group_177" data-name="Group 177" transform="translate(138.152 266.343)">
      <circle id="Ellipse_5" data-name="Ellipse 5" cx="8.28" cy="8.28" r="8.28" transform="translate(0 0)" fill="#fff700"/>
      <path id="Path_2102" data-name="Path 2102" d="M447.826,270.325a5.021,5.021,0,1,1-5.021,5.021,5.027,5.027,0,0,1,5.021-5.021m0-3.259a8.28,8.28,0,1,0,8.28,8.28,8.28,8.28,0,0,0-8.28-8.28Z" transform="translate(-439.546 -267.066)" fill="#181717"/>
    </g>
    <g id="Group_179" data-name="Group 179" transform="translate(157.016 266.329)">
      <g id="Group_178" data-name="Group 178" transform="translate(0 0)">
        <path id="Path_2103" data-name="Path 2103" d="M518.21,277.744v5.84h-3.415V267.009h6.466a7.476,7.476,0,0,1,3.284.683,5.032,5.032,0,0,1,2.18,1.941,5.415,5.415,0,0,1,.763,2.863,4.759,4.759,0,0,1-1.668,3.842,6.945,6.945,0,0,1-4.616,1.406Zm0-2.766h3.051a3,3,0,0,0,2.066-.637,2.318,2.318,0,0,0,.711-1.821,2.735,2.735,0,0,0-.717-1.969,2.68,2.68,0,0,0-1.981-.774h-3.13Z" transform="translate(-514.795 -267.009)" fill="#181717"/>
      </g>
    </g>
  </g>
</svg>
