<svg xmlns="http://www.w3.org/2000/svg" width="20.298" height="18.761" viewBox="0 0 20.298 18.761">
  <g id="Group_520" data-name="Group 520" transform="translate(-46 -330)">
    <path id="Path_2106" data-name="Path 2106" d="M-464.689,205.919h-20.3c.044-.177.082-.342.126-.506q.388-1.438.78-2.874c.291-1.065.585-2.13.876-3.2q.423-1.551.842-3.1c.063-.234.128-.468.183-.7a.173.173,0,0,1,.2-.155q2.761.007,5.522,0h2.632c-.1-.211-.181-.394-.263-.579a7.72,7.72,0,0,1-.747-3.457,4.258,4.258,0,0,1,1.084-2.7,4.293,4.293,0,0,1,2.316-1.383,4.225,4.225,0,0,1,2.025.026,4.328,4.328,0,0,1,2.253,1.383,4.293,4.293,0,0,1,1.015,2.221,5.932,5.932,0,0,1-.1,2.032,9.457,9.457,0,0,1-1.081,2.821.61.61,0,0,0,.013.509c.2.744.4,1.485.6,2.227.216.791.436,1.582.651,2.373.235.864.464,1.729.7,2.592.173.638.351,1.276.524,1.914C-464.78,205.545-464.738,205.725-464.689,205.919Zm-19.127-.906h17.846c-.018-.045-.026-.072-.038-.1a5.072,5.072,0,0,0-.871-1.246,8.6,8.6,0,0,0-.866-.746.519.519,0,0,0-.63-.015c-.119.074-.234.153-.352.229a1.2,1.2,0,0,1-1.007.208,1.2,1.2,0,0,1-1.026-1.072c-.025-.218-.057-.435-.085-.652a.2.2,0,0,0-.184-.192c-.294-.047-.591-.085-.878-.159a1.593,1.593,0,0,1-1.193-1.145,2.446,2.446,0,0,1,.233-1.906c.043-.082.07-.135-.031-.192-.025-.014-.032-.092-.021-.134.056-.2.126-.4.178-.6a.27.27,0,0,0-.025-.19c-.146-.233-.309-.456-.454-.689a.242.242,0,0,0-.237-.128q-2.4.005-4.807,0a.186.186,0,0,0-.215.173,1.624,1.624,0,0,1-.658,1.022,5.572,5.572,0,0,1-.668.375,1.457,1.457,0,0,0-.789.773c-.056.143-.1.293-.163.431a1.984,1.984,0,0,1-1.4,1.1c-.244.061-.394.123-.456.406-.145.654-.343,1.3-.519,1.945l-.484,1.781Zm16.826-13.27a3.671,3.671,0,0,0-.343-1.7,3.411,3.411,0,0,0-2.08-1.817,3.325,3.325,0,0,0-2.013-.028,3.415,3.415,0,0,0-2.123,1.742,3.855,3.855,0,0,0-.317,2.522,8.241,8.241,0,0,0,.658,2.087,13.96,13.96,0,0,0,2.634,3.75c.091.1.152.092.235,0,.322-.375.66-.737.97-1.122a11.392,11.392,0,0,0,2.018-3.557A6.693,6.693,0,0,0-466.99,191.743Zm.473,11,.035-.02-1.557-5.735h-.045l-.092.118c-.24.309-.462.636-.725.925-.47.517-.964,1.013-1.452,1.513-.035.036-.137.068-.16.048-.251-.222-.5-.449-.736-.685-.18-.178-.346-.372-.513-.552-.094.071-.2.112-.241.188a1.584,1.584,0,0,0-.243,1.28.692.692,0,0,0,.4.522,2.162,2.162,0,0,0,.718.163,1.1,1.1,0,0,1,1.174,1.04c.034.221.06.444.1.664a.388.388,0,0,0,.479.256,2.918,2.918,0,0,0,.367-.226,1.53,1.53,0,0,1,1.367-.249,2.959,2.959,0,0,1,1.014.656C-466.592,202.686-466.554,202.716-466.517,202.747Zm-15.721-3.533a1.109,1.109,0,0,0,.72-.72,2.223,2.223,0,0,1,1.048-1.31c.271-.154.548-.3.816-.456a.646.646,0,0,0,.267-.444h-.182l-1.68,0c-.209,0-.2,0-.258.2-.2.747-.4,1.492-.6,2.238C-482.151,198.875-482.189,199.027-482.238,199.214Z" transform="translate(530.987 142.842)" fill="#0086fb"/>
    <path id="Path_2107" data-name="Path 2107" d="M-263.76,229.66A2.234,2.234,0,0,1-266,227.4a2.246,2.246,0,0,1,2.254-2.223,2.25,2.25,0,0,1,2.231,2.217A2.232,2.232,0,0,1-263.76,229.66Zm-.023-.9a1.348,1.348,0,0,0,1.371-1.347,1.359,1.359,0,0,0-1.33-1.336,1.366,1.366,0,0,0-1.359,1.339A1.353,1.353,0,0,0-263.783,228.76Z" transform="translate(324.278 106.955)" fill="#0086fb"/>
  </g>
</svg>
