<svg xmlns="http://www.w3.org/2000/svg" width="40.5" height="40.41" viewBox="0 0 40.5 40.41">
  <g id="Group_497" data-name="Group 497" transform="translate(866.367 -167.521)">
    <path id="Path_2120" data-name="Path 2120" d="M-866.367,187.725q0-9.469,0-18.938c0-.984.282-1.265,1.269-1.265q4.758,0,9.515,0c.869,0,1.2.327,1.2,1.19q0,19.014,0,38.028c0,.862-.336,1.19-1.2,1.19q-4.809,0-9.617,0c-.847,0-1.165-.318-1.165-1.165Q-866.368,197.244-866.367,187.725Zm10.071,18.337V169.407h-8.189v36.654Z" fill="#3a3a3a"/>
    <path id="Path_2121" data-name="Path 2121" d="M-730.791,221.214c0-1.11-.008-2.219.009-3.328a1.067,1.067,0,0,1,.2-.454c.8-1.37,1.612-2.737,2.441-4.142-.775-.456-1.525-.913-2.291-1.341a.617.617,0,0,1-.379-.635c.024-.539.007-1.08.007-1.733l3.607,2.1,4.192-7.1-7.1-4.175-.6.923-.09-.021c0-1.122-.007-2.245.009-3.367a.966.966,0,0,1,.191-.406q2.162-3.671,4.328-7.34c.453-.767.872-.881,1.627-.438q4.161,2.438,8.317,4.883a.961.961,0,0,1,.43,1.518q-7.341,12.454-14.689,24.9c-.034.057-.077.109-.116.163Zm8.734-18.228,4.187-7.1-7.116-4.184-4.193,7.1Z" transform="translate(-121.762 -19.746)" fill="#3a3a3a"/>
    <path id="Path_2122" data-name="Path 2122" d="M-730.477,458.93v-1.81h4.582c0-.661-.022-1.265.013-1.865a.76.76,0,0,1,.286-.51c.467-.326.967-.6,1.531-.947v3.276h8.267V456.5c0-2.454-.007-4.908.013-7.361a.761.761,0,0,1,.3-.541c.779-.51,1.579-.988,2.383-1.457a1.188,1.188,0,0,1,.569-.151q3.791-.015,7.581,0c.8,0,1.14.352,1.14,1.151q0,4.848,0,9.7c0,.758-.335,1.112-1.065,1.112q-12.644,0-25.288,0C-730.245,458.946-730.329,458.938-730.477,458.93Zm16.594-10.037v8.174h8.184v-8.174Z" transform="translate(-122.059 -251.017)" fill="#3a3a3a"/>
    <path id="Path_2123" data-name="Path 2123" d="M-730.773,309.877c0-.711-.023-1.32.016-1.925a.715.715,0,0,1,.344-.433c1.468-.908,2.947-1.8,4.422-2.7.142-.087.278-.184.441-.292a2.919,2.919,0,0,0-.3-.486,1.2,1.2,0,0,1-.005-1.768,8.008,8.008,0,0,0,.55-.9l1.357,2.2,7.054-4.286c-1.011-1.657-1.935-3.313-3-4.869a1.605,1.605,0,0,1,.013-2.256,4.851,4.851,0,0,0,.405-.667l4.175,6.826,7.053-4.284-4.3-7.042-6.483,3.937-.082-.061c.291-.5.624-.971.866-1.489a5.6,5.6,0,0,1,2.7-2.752c.922-.455,1.769-1.063,2.653-1.6a.965.965,0,0,1,1.542.353q2.544,4.153,5.074,8.314c.429.7.3,1.123-.455,1.584l-18.439,11.2q-2.538,1.543-5.074,3.089C-730.389,309.669-730.536,309.745-730.773,309.877Z" transform="translate(-121.787 -105.341)" fill="#3a3a3a"/>
    <path id="Path_2124" data-name="Path 2124" d="M-819.854,492.249a1.4,1.4,0,0,1,1.4,1.369,1.41,1.41,0,0,1-1.371,1.405,1.429,1.429,0,0,1-1.408-1.374A1.413,1.413,0,0,1-819.854,492.249Z" transform="translate(-40.542 -291.677)" fill="#3a3a3a"/>
  </g>
</svg>
