<svg xmlns="http://www.w3.org/2000/svg" width="48.443" height="31.381" viewBox="0 0 48.443 31.381">
  <path id="Path_2125" data-name="Path 2125" d="M-689.614,789.141H-694.2l.823,3.929c1.126-.232,2.19-.46,3.257-.668a1.554,1.554,0,0,1,1.962,1.825c-.15,1.838-.324,3.68-.326,5.521a14.27,14.27,0,0,0,1.1,5.818,11.118,11.118,0,0,0,.9,1.579,1.549,1.549,0,0,1,.1,1.918,1.517,1.517,0,0,1-1.728.543,13.588,13.588,0,0,1-7.716-5.294,27.089,27.089,0,0,1-4.1-7.966,1.524,1.524,0,0,1,1.256-2.122c1.084-.244,2.169-.483,3.308-.737l-.923-4.351h-10.373c.249,1.2.5,2.367.727,3.538.073.379.268.369.569.3.948-.215,1.9-.411,2.852-.606a1.53,1.53,0,0,1,1.878,1.792,24.437,24.437,0,0,0,.327,10.021,15.748,15.748,0,0,0,1.408,3,1.686,1.686,0,0,1,.069,1.826,1.486,1.486,0,0,1-1.706.592,13.094,13.094,0,0,1-7.154-4.562,25.7,25.7,0,0,1-4.732-8.843,1.469,1.469,0,0,1,1.136-1.947c1.122-.262,2.25-.494,3.457-.756l-.918-4.358h-10.376l.815,3.916c.724-.144,1.427-.283,2.129-.426.4-.081.791-.175,1.188-.254a1.492,1.492,0,0,1,1.888,1.658c-.1,1.335-.257,2.666-.312,4a17.882,17.882,0,0,0,.684,6.317,15.881,15.881,0,0,0,1.327,2.779,1.7,1.7,0,0,1,.119,1.874,1.514,1.514,0,0,1-1.763.593,13.418,13.418,0,0,1-7.449-4.966,26.243,26.243,0,0,1-4.35-8.3,1.5,1.5,0,0,1,1.2-2.1c1.1-.258,2.207-.495,3.356-.751l-.924-4.371c-.442,0-.882.008-1.322,0a2.5,2.5,0,0,1-2.591-2.509c-.039-.892-.038-1.788,0-2.679a2.451,2.451,0,0,1,2.647-2.488q14.072-.009,28.145,0h4.7c.019-.221.038-.378.045-.535a2.484,2.484,0,0,1,2.537-2.563q3.9-.064,7.8,0a2.437,2.437,0,0,1,2.512,2.519q.058,4.415,0,8.832a2.437,2.437,0,0,1-2.626,2.506c-2.437.007-4.876-.065-7.31.023a2.617,2.617,0,0,1-2.906-2.814A1.668,1.668,0,0,0-689.614,789.141Zm.007-5.71h-22.41q-5.115,0-10.23,0c-.74,0-.845.11-.849.843q-.006.974,0,1.948c0,.739.1.827.855.827q16.076,0,32.152,0c.156,0,.311-.025.483-.04Zm10.834,1.848c0-1.38-.015-2.76.007-4.14.009-.571-.208-.8-.787-.8q-3.623.025-7.246,0c-.51,0-.742.183-.74.712q.016,4.17,0,8.341c0,.517.2.723.722.72q3.653-.024,7.307,0c.561,0,.753-.216.745-.759C-678.787,788-678.773,786.639-678.773,785.279Zm-19.1,10.815c1.812,4.682,4.077,8.891,8.893,11.051-1.85-4.071-1.737-8.338-1.325-12.668Zm-24.88-.009c1.786,5.4,6.088,10.7,8.91,11.012-1.929-4.03-1.766-8.285-1.38-12.619Zm20-1.609-7.528,1.608c1.531,5.1,6.141,10.794,8.9,11.011C-703.3,803.068-703.173,798.81-702.754,794.476Z" transform="translate(725.159 -778.291)" fill="#3a3a3a"/>
</svg>
