<svg xmlns="http://www.w3.org/2000/svg" width="48.422" height="48.393" viewBox="0 0 48.422 48.393">
  <g id="Group_496" data-name="Group 496" transform="translate(414.373 -297.515)">
    <path id="Path_2110" data-name="Path 2110" d="M-414.373,325.149c.117-.119.273-.383.5-.487.65-.294,1.347-.485,1.988-.8a.975.975,0,0,0,.471-.684c.063-1.031.07-2.068.038-3.1a.815.815,0,0,0-.446-.546c-.674-.3-1.371-.559-2.07-.8a.55.55,0,0,1-.438-.707,23.925,23.925,0,0,1,4.5-10.821.793.793,0,0,1,.714-.183c.718.258,1.4.63,2.112.89a.868.868,0,0,0,.739-.137c.747-.682,1.429-1.435,2.172-2.124a.653.653,0,0,0,.138-.9c-.313-.643-.576-1.311-.893-1.952a.542.542,0,0,1,.2-.8,24.593,24.593,0,0,1,10.7-4.456c.463-.075.719.026.866.518a13.748,13.748,0,0,0,.776,2,.887.887,0,0,0,.633.429c1.011.046,2.027.051,3.037,0a.965.965,0,0,0,.674-.475,17.134,17.134,0,0,0,.779-2c.131-.387.3-.55.747-.481a24.109,24.109,0,0,1,10.82,4.515c.149.11.14.436.195.665.009.039-.035.09-.054.135-.34.816-1.068,1.716-.913,2.424.166.758,1.162,1.335,1.8,1.989a2.941,2.941,0,0,0,.586.561.94.94,0,0,0,.69.111c.715-.268,1.414-.585,2.1-.921a.539.539,0,0,1,.8.216,24.6,24.6,0,0,1,4.447,10.7c.079.5-.061.707-.528.848-.613.185-1.2.463-1.8.674a.784.784,0,0,0-.6.877c.032.938.031,1.878,0,2.816a.746.746,0,0,0,.567.822,13.3,13.3,0,0,0,1.531.538c.728.16.936.524.8,1.253a24.935,24.935,0,0,1-3.645,9.311c-1.037,1.585-1.044,1.581-2.753.823-1.318-.585-1.318-.584-2.321.423-.488.49-.959,1-1.475,1.459a.647.647,0,0,0-.152.9c.314.642.575,1.311.891,1.953a.541.541,0,0,1-.189.807,24.508,24.508,0,0,1-10.77,4.461c-.417.064-.631-.028-.768-.443a18.371,18.371,0,0,0-.8-2.069.889.889,0,0,0-.636-.431c-1.011-.046-2.026-.051-3.037,0a.968.968,0,0,0-.677.477,17.169,17.169,0,0,0-.777,2c-.132.389-.306.538-.749.47a24.03,24.03,0,0,1-10.817-4.517.8.8,0,0,1-.152-.722c.251-.694.62-1.346.866-2.041a.952.952,0,0,0-.137-.806,29.62,29.62,0,0,0-2.147-2.147.951.951,0,0,0-.8-.137c-.7.246-1.349.608-2.041.869a.753.753,0,0,1-.675-.1A24.251,24.251,0,0,1-414.373,325.149Zm24.222,9.621a13.071,13.071,0,0,0,13.061-13.106A13.078,13.078,0,0,0-390.1,308.65a13.088,13.088,0,0,0-13.108,13.079A13.082,13.082,0,0,0-390.151,334.77Z" fill="#3a3a3a"/>
    <path id="Path_2111" data-name="Path 2111" d="M-327.048,442.74a4.03,4.03,0,0,1,2.857.9,2.192,2.192,0,0,1,.552,2.9c-1.318,2.116-5.29,2.055-6.555-.1a2.069,2.069,0,0,1,.264-2.4A3.519,3.519,0,0,1-327.048,442.74Z" transform="translate(-71.47 -123.686)" fill="#3a3a3a"/>
    <path id="Path_2112" data-name="Path 2112" d="M-216.183,447.878a3.688,3.688,0,0,1-3.092-1.257,2.122,2.122,0,0,1,0-2.874,4.251,4.251,0,0,1,6.036.075,2.056,2.056,0,0,1-.362,3.163A3.329,3.329,0,0,1-216.183,447.878Z" transform="translate(-165.694 -123.511)" fill="#3a3a3a"/>
    <path id="Path_2113" data-name="Path 2113" d="M-268.988,495.333a3.833,3.833,0,0,1,1.164-2.83,2.109,2.109,0,0,1,3-.012,4.316,4.316,0,0,1,.067,5.836,2.172,2.172,0,0,1-3.224-.1A4.083,4.083,0,0,1-268.988,495.333Z" transform="translate(-123.828 -165.537)" fill="#3a3a3a"/>
    <path id="Path_2114" data-name="Path 2114" d="M-270.116,385.016a3.96,3.96,0,0,1,.98-2.721,2.2,2.2,0,0,1,3.43.054,4.431,4.431,0,0,1,.137,5.242,2.177,2.177,0,0,1-3.731-.019,12.766,12.766,0,0,1-1.014-2.473Z" transform="translate(-122.698 -71.534)" fill="#3a3a3a"/>
    <path id="Path_2115" data-name="Path 2115" d="M-304.889,480.924a4.289,4.289,0,0,1-3.82,3.948,2.133,2.133,0,0,1-2.441-2.438,4.243,4.243,0,0,1,4.213-3.816A2.089,2.089,0,0,1-304.889,480.924Z" transform="translate(-87.914 -154.241)" fill="#3a3a3a"/>
    <path id="Path_2116" data-name="Path 2116" d="M-226.809,482.36a2.09,2.09,0,0,1-2.256,2.262A4.308,4.308,0,0,1-233.055,481a2.249,2.249,0,0,1,2.794-2.65A4.419,4.419,0,0,1-226.809,482.36Z" transform="translate(-154.418 -153.987)" fill="#3a3a3a"/>
    <path id="Path_2117" data-name="Path 2117" d="M-308.925,400.534a4.218,4.218,0,0,1,4.013,4.279,2.08,2.08,0,0,1-1.945,1.976,4.188,4.188,0,0,1-4.288-4.416A2.076,2.076,0,0,1-308.925,400.534Z" transform="translate(-87.903 -87.744)" fill="#3a3a3a"/>
    <path id="Path_2118" data-name="Path 2118" d="M-230.788,406.788a2.107,2.107,0,0,1-2.252-2.279,4.294,4.294,0,0,1,3.641-3.974,2.173,2.173,0,0,1,2.606,2.553A4.289,4.289,0,0,1-230.788,406.788Z" transform="translate(-154.446 -87.731)" fill="#3a3a3a"/>
    <path id="Path_2119" data-name="Path 2119" d="M-269.808,445.2a3.233,3.233,0,0,1-3.4-3.213,3.274,3.274,0,0,1,3.244-3.315,3.222,3.222,0,0,1,3.309,3.233A3.206,3.206,0,0,1-269.808,445.2Zm-.141-4.727A1.664,1.664,0,0,0-271.386,442a1.7,1.7,0,0,0,1.485,1.4,1.551,1.551,0,0,0,1.406-1.537A1.533,1.533,0,0,0-269.949,440.468Z" transform="translate(-120.235 -120.223)" fill="#3a3a3a"/>
  </g>
</svg>
